# xmcd
#
# Track frame offsets:
# 150
# 14935
# 34280
# 49900
# 66445
# 81405
# 97397
# 112482
# 126577
# 136565
# 150907
# 162035
#
# Disc length: 2363 seconds
#
#
# Revision: 0
# Processed by: cddbd v1.5.2PL0 Copyright (c) Steve Scherf et al.
# Submitted via: FreeRIP 2.951 
#
DISCID=b309390c
DTITLE=Chris LeDoux - Radio and Rodeo Hits
DYEAR=1990
DGENRE=Country
TTITLE0=Cowboy Songs
TTITLE1=Seventeen
TTITLE2=Hooked On An 8 Second Ride
TTITLE3=Running Through The Rain
TTITLE4=It Ain't the Years - It's The Miles
TTITLE5=Blue Bonnet Blues
TTITLE6=Wild And Wooly
TTITLE7=Hard Times
TTITLE8=Just Enough Money, Honey
TTITLE9=Sons Of The Pioneers
TTITLE10=So You Want To Be A Cowboy
TTITLE11=Riding For A Fall
EXTD=Label: American Cowboy Songs
EXTT0=
EXTT1=
EXTT2=
EXTT3=
EXTT4=
EXTT5=
EXTT6=
EXTT7=
EXTT8=
EXTT9=
EXTT10=
EXTT11=
PLAYORDER=
